<svg fill="#000000" version="1.1" id="Capa_1" xmlns="http://www.w3.org/2000/svg"
     viewBox="0 0 45.057 45.057" xml:space="preserve" stroke="#000000"><g id="SVGRepo_bgCarrier" stroke-width="0"></g>
  <g id="SVGRepo_tracerCarrier" stroke-linecap="round" stroke-linejoin="round"></g>
  <g id="SVGRepo_iconCarrier"> <g> <g id="_x31_77_35_"> <g> <path
    d="M33.431,0H5.179v45.057h34.699V6.251L33.431,0z M36.878,42.056H8.179V3h23.707v4.76h4.992V42.056z"></path>
    <path
      d="M12.291,16.948v1v5.492v1v5.491v1v6.492h6.492h1h5.492h1h6.492v-6.492v-1v-5.491v-1v-5.492v-1v-0.003H12.291V16.948z M26.274,17.948h5.492v5.492h-5.492V17.948z M26.274,24.439h5.492v5.491h-5.492V24.439z M26.274,30.931h5.492v5.492h-5.492 V30.931z M19.781,17.948h5.491v5.492h-5.491V17.948z M19.781,24.439h5.491v5.491h-5.491V24.439z M19.781,30.931h5.491v5.492 h-5.491V30.931z M13.291,17.948h5.492v5.492h-5.492V17.948z M13.291,24.439h5.492v5.491h-5.492V24.439z M13.291,30.931h5.492 v5.492h-5.492V30.931z"></path>
    <rect x="24.698" y="11.195" width="8.066" height="4.792"></rect>
    <rect x="15.782" y="11.195" width="8.066" height="4.792"></rect> </g> </g> </g> </g></svg>
